# xmcd CD database file
#
# Track frame offsets:
#	150
#	15608
#	35033
#	51585
#	81300
#	94590
#	112633
#	124765
#	145043
#	160573
#
# Disc length: 2300 seconds
#
# Revision: 5
# Processed by: cddbd v1.5.2PL0 Copyright (c) Steve Scherf et al.
# Submitted via: CDex 1.51
#
DISCID=7708fa0a
DTITLE=Various Artist - If You Can't Please Yourself, You Can't Please Your Soul
DYEAR=1985
DGENRE=Industrial
TTITLE0=Scraping Foetus Off the Wheel - The Only Good Christian is a Dead Christian
TTITLE1=Cabaret Voltaire - Product Patrol
TTITLE2=Test Dept. - Total Nervous Phenomonom
TTITLE3=Marc Almond - Love Amongst the Ruined
TTITLE4=Psychic T.V. - Twisted
TTITLE5=The The - Flesh and Bones
TTITLE6=Coil - The Wheel
TTITLE7=Yello - The Roxy Cut
TTITLE8=Virginia Astley - Waiting to Fall
TTITLE9=Einstürzende Neubauten - Wardrobe
EXTD=YEAR: 1985
EXTT0=
EXTT1=
EXTT2=
EXTT3=
EXTT4=
EXTT5=
EXTT6=
EXTT7=
EXTT8=
EXTT9=
PLAYORDER=
